<svg xmlns="http://www.w3.org/2000/svg" xmlns:xlink="http://www.w3.org/1999/xlink" viewBox="0 0 30 48"><style>.st0{display:none}.st1,.st2{display:inline;fill:#aaa}.st2{fill:none;stroke:#999;stroke-width:2;stroke-linecap:round;stroke-linejoin:round;stroke-miterlimit:10}.st3{fill:#007aff}</style><path class="st0 st1" d="M9 13.6v20.8L27 24" id="Layer_1"/><path class="st0 st1" d="M9 14h12v20H9z" id="Layer_3"/><path class="st0 st2" d="M10 15l10 9-10 9" id="Layer_2"/><image width="20" height="44" xlink:href="../../../../../../../Desktop/Unknown.png" transform="translate(5 2)" overflow="visible" id="Layer_5" class="st0"/><path class="st3" d="M6 46c.3 0 .6-.1.8-.3l18-21c.3-.4.3-.9 0-1.3l-18-21c-.4-.4-1-.5-1.4-.1-.4.4-.5 1-.1 1.4L22.7 24 5.2 44.3c-.4.4-.3 1 .1 1.4.2.2.5.3.7.3z" id="Layer_4"/></svg>